<svg width="313" height="237" xmlns="http://www.w3.org/2000/svg" xmlns:xlink="http://www.w3.org/1999/xlink">
 <defs>
  <linearGradient id="imagebot_90">
   <stop stop-color="#ef1f00" id="imagebot_137" offset="0"/>
   <stop stop-color="#ff5339" id="imagebot_136" offset="1"/>
  </linearGradient>
  <linearGradient id="imagebot_97">
   <stop stop-color="#b3d5f6" offset="0" id="imagebot_135"/>
   <stop stop-color="#eff6fd" offset="1" id="imagebot_134"/>
  </linearGradient>
  <linearGradient id="imagebot_102">
   <stop stop-color="#cbc7c6" offset="0" id="imagebot_133"/>
   <stop stop-color="#cbc7c6" stop-opacity="0" offset="1" id="imagebot_132"/>
  </linearGradient>
  <linearGradient id="imagebot_93">
   <stop stop-color="#bfbfbf" id="imagebot_131" offset="0"/>
   <stop stop-color="#000000" id="imagebot_130" offset="1"/>
  </linearGradient>
  <linearGradient id="imagebot_94">
   <stop stop-color="#909090" id="imagebot_129" offset="0"/>
   <stop stop-color="#bababa" stop-opacity="0" id="imagebot_128" offset="1"/>
  </linearGradient>
  <linearGradient id="imagebot_95">
   <stop stop-color="#010101" id="imagebot_127" offset="0"/>
   <stop stop-color="#434343" id="imagebot_126" offset="1"/>
  </linearGradient>
  <linearGradient id="imagebot_96">
   <stop stop-color="#b3d5f6" id="imagebot_125" offset="0"/>
   <stop stop-color="#eff6fd" id="imagebot_124" offset="1"/>
  </linearGradient>
  <linearGradient id="imagebot_98">
   <stop stop-color="#b3d5f6" id="imagebot_123" offset="0"/>
   <stop stop-color="#eff6fd" id="imagebot_122" offset="1"/>
  </linearGradient>
  <linearGradient id="imagebot_91">
   <stop stop-color="#000000" stop-opacity="0.675" id="imagebot_113" offset="0"/>
   <stop stop-color="#000000" stop-opacity="0" id="imagebot_112" offset="1"/>
  </linearGradient>
  <linearGradient id="imagebot_92">
   <stop stop-color="#ffffff" stop-opacity="0.8" offset="0" id="imagebot_111"/>
   <stop stop-color="#ffffff" stop-opacity="0" offset="1" id="imagebot_110"/>
  </linearGradient>
  <linearGradient id="imagebot_103">
   <stop stop-color="#cbc7c6" id="imagebot_109" offset="0"/>
   <stop stop-color="#cbc7c6" stop-opacity="0" id="imagebot_108" offset="1"/>
  </linearGradient>
  <linearGradient id="imagebot_99">
   <stop stop-color="#ffffff" id="imagebot_107" offset="0"/>
   <stop stop-color="#ffffff" stop-opacity="0" id="imagebot_106" offset="1"/>
  </linearGradient>
  <linearGradient y2="0.99101" x2="0.64173" y1="-0.08987" x1="0.27039" id="imagebot_19" xlink:href="#imagebot_99"/>
  <linearGradient y2="0.34467" x2="0.39659" y1="1.85623" x1="0.77707" id="imagebot_17" xlink:href="#imagebot_99"/>
  <linearGradient y2="0.4427" x2="-0.20918" y1="0.34571" x1="3.58912" id="imagebot_15" xlink:href="#imagebot_99"/>
  <linearGradient y2="1.10741" x2="0.53846" y1="-0.09259" x1="0.07692" id="imagebot_56" xlink:href="#imagebot_103"/>
  <linearGradient y2="1.05686" x2="0.07843" y1="0.36667" x1="0.17367" id="imagebot_54" xlink:href="#imagebot_102"/>
  <radialGradient gradientUnits="userSpaceOnUse" gradientTransform="matrix(1,0,0,2.0409139,0,-281.57501)" r="19.62767" fy="269.76462" fx="254.97543" cy="269.76462" cx="254.97543" id="imagebot_52" xlink:href="#imagebot_92"/>
  <linearGradient y2="0.41926" x2="1.38408" y1="0.36274" x1="-0.23045" id="imagebot_50" xlink:href="#imagebot_99"/>
  <linearGradient y2="0.08953" x2="0.36518" y1="0.79561" x1="0.47099" id="imagebot_73" xlink:href="#imagebot_98"/>
  <linearGradient y2="0.42122" x2="0.18673" y1="0.66939" x1="0.41686" id="imagebot_78" xlink:href="#imagebot_97"/>
  <linearGradient y2="0.64807" x2="-0.00926" y1="0.51163" x1="0.52459" id="imagebot_83" xlink:href="#imagebot_96"/>
  <linearGradient y2="0.8822" x2="0.99986" y1="0.14341" x1="-0.75683" id="imagebot_68" xlink:href="#imagebot_92"/>
  <linearGradient y2="-0.41564" x2="0.99578" y1="1.70573" x1="0.36236" id="imagebot_66" xlink:href="#imagebot_92"/>
  <linearGradient y2="1.25109" x2="0.50449" y1="0.15025" x1="0.02599" id="imagebot_63" xlink:href="#imagebot_92"/>
  <linearGradient y2="0.00849" x2="0.46108" y1="0.93278" x1="1.03373" id="imagebot_61" xlink:href="#imagebot_92"/>
  <linearGradient y2="-0.02258" x2="0.06376" y1="1.01613" x1="0.84592" id="imagebot_38" xlink:href="#imagebot_95"/>
  <linearGradient y2="0.11956" x2="0.21739" y1="0.83695" x1="0.81522" id="imagebot_36" xlink:href="#imagebot_94"/>
  <radialGradient gradientTransform="matrix(2.0783879,-1.8812591,1.1309583,1.2494666,-496.96352,260.94388)" gradientUnits="userSpaceOnUse" r="14.9637" fy="301.93802" fx="168.56766" cy="301.93802" cx="168.56766" id="imagebot_40" xlink:href="#imagebot_93"/>
  <linearGradient y2="0.99455" x2="0.58846" y1="-0.88307" x1="0.02958" id="imagebot_29" xlink:href="#imagebot_92"/>
  <linearGradient y2="0.99455" x2="0.58846" y1="-1.22608" x1="0.42344" id="imagebot_27" xlink:href="#imagebot_92"/>
  <linearGradient y2="0.98952" x2="1.19185" y1="0.01575" x1="0.32828" id="imagebot_25" xlink:href="#imagebot_92"/>
  <linearGradient y2="0.95109" x2="0.76923" y1="-0.52879" x1="0.39549" id="imagebot_5" xlink:href="#imagebot_91"/>
  <linearGradient y2="0.99484" x2="0.28286" y1="-0.74463" x1="0.67324" id="imagebot_3" xlink:href="#imagebot_91"/>
  <linearGradient y2="0.39453" x2="0.22386" y1="0.45078" x1="0.7615" id="imagebot_58" xlink:href="#imagebot_90"/>
 </defs>
 <title/>
 <metadata id="imagebot_89">image/svg+xmlDoctor (white coat)2015-04-02Christoph Brill</metadata>
 <g display="inline">
  <title>Layer 1</title>
  <path transform="matrix(1 0 0 1 0 5.68434e-14)" fill="#7f3f00" fill-rule="evenodd" stroke="#cd7c4b" stroke-width="1.02411" stroke-miterlimit="4" id="imagebot_87" d="M 94.3630312084961 92.69035601806641 C 104.08711120849608 99.19613601806641 97.1587212084961 113.6080860180664 113.2260512084961 124.66547601806641 C 128.10010120849608 134.9016760180664 97.40384120849609 163.01737601806641 81.9410312084961 170.9028860180664 C 14.966371208496092 199.3133760180664 70.3056012084961 84.8837760180664 94.3630312084961 92.69035601806641 z"/>
 </g>
 <g display="inline" id="imagebot_59">
  <path transform="matrix(0.682741 0 0 0.682741 -40.8987 -10.363)" fill="url(#imagebot_83)" fill-rule="evenodd" stroke-width="1px" d="M130.70704,212.92327L139.18046,215.80784L146.03131,245.37467L158.83159,246.99724L187.67728,228.96869L199.9367,243.93239L169.28815,321.45519L122.95476,315.14519L130.70704,212.92327z" id="imagebot_82"/>
  <path transform="matrix(0.682741 0 0 0.682741 -40.8987 -10.363)" fill="#fbfbfa" fill-rule="evenodd" stroke="#cbc7c6" stroke-width="1.5" stroke-linejoin="round" stroke-miterlimit="4" d="M74.12495,307.27678C73.84442,313.80226 111.4802,339.2088 143.19589,350.06708C180.17882,362.72867 228.94037,366.49547 270.55598,353.77332C279.155,351.14455 309.69279,337.28297 310.65082,333.89437C315.61475,316.33663 310.8547,251.50485 292.45652,235.51039C282.60519,226.94614 271.9173,217.74556 252.93749,207.86153C246.19202,204.34872 250.30953,203.09269 223.62197,189.04347C207.22552,209.277 185.72866,241.69617 178.10687,252.83573C160.98302,277.86294 158.73142,290.31704 144.73274,314.73577C121.14598,274.42863 129.43491,207.03958 139.20596,199.31688C120.97063,206.23473 89.25926,230.58376 85.27331,237.26596C75.14953,254.23783 74.96807,287.66501 74.12495,307.27678z" id="imagebot_81"/>
  <path transform="matrix(0.682741 0 0 0.682741 -40.8987 -10.363)" fill="#999390" fill-rule="evenodd" stroke-width="1px" d="M147.36821,347.71903C137.1381,363.96377 164.58273,313.45469 176.94384,298.76627C193.3852,279.22937 210.10727,265.55203 236.09509,248.5387C233.21662,245.2755 223.67091,239.33416 219.865,235.55109C225.579,233.16904 236.75128,231.07695 248.58824,231.71119C248.52604,220.81928 247.04691,212.62119 247.59093,203.28222C248.41744,203.55364 249.33872,204.39527 250.11802,205.45007C250.98909,214.16074 251.84521,222.35892 251.09412,233.33376C242.76653,233.36346 226.29646,233.52909 220.76377,235.8498C225.69738,239.32869 233.12938,243.10831 238.25321,248.46137C208.52256,269.75122 198.0972,281.93512 180.25835,300.80597C167.03754,314.79162 160.44427,326.9551 147.36821,347.71903z" id="imagebot_80"/>
  <path transform="matrix(0.682741 0 0 0.682741 -40.8987 -10.363)" fill="none" fill-rule="evenodd" stroke="#779fc7" stroke-width="1px" id="imagebot_79" d="M150.93768,302.84567C152.44916,281.96907 153.19653,264.85788 155.90944,247.26389"/>
  <path transform="matrix(0.682741 0 0 0.682741 -40.8987 -10.363)" fill="url(#imagebot_78)" fill-rule="evenodd" stroke="#779fc7" stroke-width="1px" stroke-linecap="round" stroke-linejoin="round" id="imagebot_77" d="M156.21233,246.93629L166.64482,270.39191C177.30742,251.34213 196.92164,220.6792 226.87093,188.22927L214.16875,177.63661C212.71545,185.16438 213.20317,205.25841 156.21233,246.93629z"/>
  <path transform="matrix(0.682741 0 0 0.682741 -40.8987 -10.363)" fill="none" fill-rule="evenodd" stroke="#7fa2ba" stroke-width="1.5" stroke-miterlimit="4" d="M131.94299,345.04193C143.30602,319.13024 154.87505,293.23382 169.47223,267.5617C184.55248,241.04 202.86463,214.75769 227.52039,188.94529" id="imagebot_76"/>
  <path transform="matrix(0.682741 0 0 0.682741 -40.8987 -10.363)" fill="none" fill-rule="evenodd" stroke="#779fc7" stroke-width="1px" d="M142.77889,308.19988C142.76059,286.17595 144.65529,263.83803 147.75065,246.24404" id="imagebot_75"/>
  <path transform="matrix(0.682741 0 0 0.682741 -40.8987 -10.363)" fill="none" fill-rule="evenodd" stroke="#7fa2ba" stroke-width="1.5" stroke-linecap="round" stroke-linejoin="round" stroke-miterlimit="4" d="M145.67074,314.78462C121.92767,270.48208 130.3362,235.73697 134.85361,208.05556" id="imagebot_74"/>
  <path transform="matrix(0.682741 0 0 0.682741 -40.8987 -10.363)" fill="url(#imagebot_73)" fill-rule="evenodd" stroke="#779fc7" stroke-linecap="round" stroke-linejoin="round" stroke-miterlimit="4" d="M131.60847,263.7638C137.46881,257.06638 143.23683,250.45256 149.81731,245.91553C142.14312,232.83847 141.72678,222.5839 142.60589,212.83313L134.49303,210.39927C128.95383,253.26508 131.8753,251.43384 131.60847,263.7638z" id="imagebot_72"/>
  <circle transform="matrix(0.682741 0 0 0.682741 -40.8987 -10.363)" opacity="0.8" fill="#779fc7" stroke-width="8" stroke-linecap="round" stroke-linejoin="round" stroke-miterlimit="4" id="imagebot_71" cx="150.71873" cy="254.20866" r="2.25357"/>
  <circle transform="matrix(0.682741 0 0 0.682741 -40.8987 -10.363)" opacity="0.8" fill="#779fc7" stroke-width="8" stroke-linecap="round" stroke-linejoin="round" stroke-miterlimit="4" r="2.25357" cy="275.48236" cx="148.55531" id="imagebot_70"/>
  <circle transform="matrix(0.682741 0 0 0.682741 -40.8987 -10.363)" opacity="0.8" fill="#779fc7" stroke-width="1.5" stroke-linecap="round" stroke-linejoin="round" stroke-miterlimit="4" id="imagebot_69" cx="147.11302" cy="298.46878" r="2.25357"/>
  <path transform="matrix(0.682741 0 0 0.682741 -40.8987 -10.363)" fill="url(#imagebot_68)" fill-rule="evenodd" stroke-width="1px" d="M131.56055,214.37375C134.74226,199.49326 126.63418,244.72829 127.99107,259.88452C129.61692,278.04491 136.05811,295.51283 141.88652,312.7892C146.97049,327.85891 125.19397,278.99672 123.65672,260.64941C122.35016,245.05545 126.73998,236.91904 131.56055,214.37375z" id="imagebot_67"/>
  <path transform="matrix(0.682741 0 0 0.682741 -40.8987 -10.363)" fill="url(#imagebot_66)" fill-rule="evenodd" stroke-width="1px" stroke-linecap="round" stroke-linejoin="round" d="M168.56701,323.97918C175.20385,328.33713 185.65491,331.19653 191.82385,331.37089C199.63962,331.59181 210.43472,331.12626 215.98212,325.78204C219.92842,321.98027 164.64189,321.40183 168.56701,323.97918z" id="imagebot_65"/>
  <path transform="matrix(0.682741 0 0 0.682741 -40.8987 -10.363)" fill="none" fill-rule="evenodd" stroke="#b6c2cd" stroke-width="1px" stroke-linecap="round" stroke-linejoin="round" d="M167.84586,324.97076C172.65156,327.81164 179.71372,331.00623 186.32513,332.00189C192.32971,332.90616 201.34182,332.29735 207.32841,331.28076C211.70766,330.53711 217.4616,327.30983 217.4244,326.05247" id="imagebot_64"/>
  <path transform="matrix(0.682741 0 0 0.682741 -40.8987 -10.363)" fill="url(#imagebot_63)" fill-rule="evenodd" stroke-width="1px" id="imagebot_62" d="M228.52052,251.48513C212.26847,263.2298 200.50084,272.36204 188.35307,284.5562C179.05964,293.88513 153.44739,330.78727 163.30684,315.10547C170.43514,303.76765 176.81324,291.64581 186.18215,282.07595C198.26962,269.72922 244.01189,240.29017 228.52052,251.48513z"/>
  <path transform="matrix(0.682741 0 0 0.682741 -40.8987 -10.363)" fill="url(#imagebot_61)" fill-rule="evenodd" stroke-width="1px" d="M224.95132,232.70961C229.82646,231.74092 240.0441,228.57481 244.37709,228.42783C246.1207,228.36873 246.3625,218.39031 246.0898,212.74299C245.80851,206.91776 247.678,230.27882 246.63066,230.23069C240.56983,229.95219 218.3093,234.02939 224.95132,232.70961z" id="imagebot_60"/>
  <title>imagebot_59</title>
 </g>
 <g display="inline">
  <title>Layer 3</title>
  <path transform="matrix(1 0 0 1 0 0)" fill="url(#imagebot_58)" stroke="#901300" stroke-width="1.18639" stroke-linecap="round" stroke-linejoin="round" stroke-miterlimit="4" id="imagebot_57" d="M 96.03617120849609 209.14739601806642 C 83.1435612084961 208.2875160180664 84.2605012084961 187.64112601806642 97.0742612084961 188.0889160180664 C 112.1296912084961 188.6150260180664 109.0919112084961 210.0181660180664 96.03617120849609 209.14739601806642 z"/>
 </g>
 <g display="inline" id="imagebot_48">
  <path transform="matrix(0.682741 0 0 0.682741 -40.8987 -10.363)" fill="url(#imagebot_56)" fill-rule="evenodd" stroke-width="1px" d="M93.16154,235.67885C94.18547,252.9411 93.30688,271.66694 91.98228,302.55974L100.7425,303.90747C99.1785,272.0271 96.24599,252.76221 93.16154,235.67885z" id="imagebot_55"/>
  <path transform="matrix(0.682741 0 0 0.682741 -40.8987 -10.363)" fill="url(#imagebot_54)" fill-rule="evenodd" stroke-width="1px" id="imagebot_53" d="M282.51701,227.92943C263.61807,238.17178 247.52125,258.83523 238.08541,280.96761C226.51118,308.11573 223.01165,337.14017 222.37475,355.45798L231.13497,356.80571C232.74041,336.32593 235.92692,309.8718 245.94537,283.7506C253.50026,264.05265 266.28796,239.15311 282.51701,227.92943z"/>
  <path transform="matrix(0.682741 0 0 0.682741 -40.8987 -10.363)" fill="url(#imagebot_52)" fill-rule="evenodd" stroke-width="1px" d="M246.29688,308.79297C246.99524,296.6631 252.28184,279.73739 257.41562,267.8558C262.93225,255.08815 266.8248,248.38872 277.12611,233.82573C282.30828,226.49969 274.68247,234.15944 266.43251,245.46864C261.67725,251.98724 256.71462,260.2808 253.87784,266.17114C247.1858,280.06659 241.78476,296.62706 240.56905,308.45604C240.37352,310.3586 246.18695,310.70239 246.29688,308.79297z" id="imagebot_51"/>
  <path transform="matrix(0.682741 0 0 0.682741 -40.8987 -10.363)" fill="url(#imagebot_50)" fill-rule="evenodd" stroke-width="1px" d="M249.92058,220.61626C267.9304,232.65149 271.64374,242.11649 277.31893,255.87675C287.53822,280.65478 287.53496,301.80794 287.08704,335.68933C291.93725,338.29312 299.34099,333.19933 301.85832,328.30368C306.07266,297.63076 297.6493,264.69186 290.89898,250.87357C283.18203,235.07653 235.30292,210.84787 249.92058,220.61626z" id="imagebot_49"/>
  <title>imagebot_48</title>
 </g>
 <g display="inline">
  <title>Layer 4</title>
  <path transform="matrix(1 0 0 1 0 0)" fill="none" fill-rule="evenodd" stroke="#000000" stroke-width="1.18639px" stroke-linejoin="round" stroke-opacity="0.57995" d="M 96.1216212084961 191.36069601806642 L 95.10450120849609 196.4849860180664 L 90.70703120849609 195.67650601806642 L 90.0828612084961 199.64274601806642 L 94.19081120849609 200.3529760180664 L 93.1058712084961 205.3972860180664 L 97.0721112084961 206.0214660180664 L 97.8614512084961 200.95281601806641 L 101.87725120849609 201.8786660180664 L 102.69181120849609 197.4073060180664 L 98.21436120849609 196.66664601806642 L 99.13934120849609 191.7579660180664 L 96.1216212084961 191.36069601806642 z" id="imagebot_47"/>
 </g>
 <g display="inline">
  <title>Layer 5</title>
  <path transform="matrix(1 0 0 1 0 0)" fill="#f6f6f6" fill-rule="evenodd" stroke="#d5d5d5" stroke-width="1.18639px" stroke-linejoin="round" id="imagebot_46" d="M 95.73801120849609 190.90823601806642 L 94.72088120849608 196.0325360180664 L 90.32342120849609 195.22405601806642 L 89.69924120849609 199.19028601806642 L 93.80720120849608 199.90053601806642 L 92.72226120849609 204.9448360180664 L 96.68849120849609 205.5690060180664 L 97.4778312084961 200.5003560180664 L 101.49363120849608 201.4262160180664 L 102.30820120849609 196.9548460180664 L 97.83075120849608 196.2141860180664 L 98.75572120849608 191.3055060180664 L 95.73801120849609 190.90823601806642 z"/>
 </g>
 <g display="inline" id="imagebot_22">
  <path transform="matrix(0.682741 0 0 0.682741 -40.8987 -10.363)" fill="#999390" fill-rule="evenodd" stroke-width="1px" id="imagebot_45" d="M136.47618,336.59917C133.18589,331.74915 122.41002,316.09808 117.4648,304.77354C110.32389,288.42085 106.42744,272.16296 101.87416,254.90982C100.75463,250.66771 99.74923,245.04472 100.08943,240.67632C102.09321,239.18618 103.70509,239.25016 107.63049,236.18011C104.31423,233.97242 101.80522,232.88011 99.15706,231.49269C103.4529,226.71834 105.76032,223.40521 111.54209,215.96813C110.63714,216.31548 110.35748,216.5359 109.33478,217.06331C106.63797,221.12921 100.19702,228.54494 97.38514,231.80233C100.58062,233.02437 103.64682,234.12984 106.55065,236.15824C102.68081,238.4407 100.31268,239.8921 98.88023,240.47603C98.04228,244.82812 99.62986,250.47599 100.68308,255.31545C104.44237,272.58914 106.24904,289.4068 113.7602,305.40977C117.84661,314.1161 127.21527,327.42192 135.25552,339.2879C135.61465,338.61843 136.07878,337.49497 136.47618,336.59917z"/>
  <path transform="matrix(0.682741 0 0 0.682741 -40.8987 -10.363)" fill="none" fill-rule="evenodd" stroke="#5d5d5d" stroke-width="4" stroke-miterlimit="4" d="M105.65614,322.40256C73.20375,307.57363 79.68056,285.53252 82.32671,265.93034" id="imagebot_44"/>
  <path transform="matrix(0.682741 0 0 0.682741 -40.8987 -10.363)" fill="none" fill-rule="evenodd" stroke="#ffffff" stroke-width="1px" stroke-linecap="round" stroke-linejoin="round" stroke-opacity="0.41667" d="M102.62233,319.80066C78.85704,307.30884 77.3305,290.44452 80.95053,270.46546" id="imagebot_43"/>
  <path transform="matrix(0.682741 0 0 0.682741 -40.8987 -10.363)" fill="none" fill-rule="evenodd" stroke="#5d5d5d" stroke-width="4" stroke-miterlimit="4" id="imagebot_42" d="M76.08051,314.24376C103.48308,314.82905 112.80415,300.78004 119.16876,276.38379"/>
  <circle transform="matrix(0.682741 0 0 0.682741 -40.8987 -10.363)" fill="#090c0e" stroke-width="1.5" stroke-linecap="round" stroke-linejoin="round" stroke-miterlimit="4" id="imagebot_41" cx="206.427" cy="329.74832" r="16.58627"/>
  <circle transform="matrix(0.682741 0 0 0.682741 -40.8987 -10.363)" fill="url(#imagebot_40)" stroke-width="1.5" stroke-linecap="round" stroke-linejoin="round" stroke-miterlimit="4" r="16.2257" cy="330.46945" cx="204.44385" id="imagebot_39"/>
  <circle transform="matrix(0.682741 0 0 0.682741 -40.8987 -10.363)" fill="#f6f6f6" stroke="url(#imagebot_38)" stroke-width="1.5" stroke-linecap="round" stroke-linejoin="round" stroke-miterlimit="4" r="9.87979" cy="329.73856" cx="204.63979" id="imagebot_37"/>
  <circle transform="matrix(0.682741 0 0 0.682741 -40.8987 -10.363)" fill="url(#imagebot_36)" stroke-width="1.5" stroke-linecap="round" stroke-linejoin="round" stroke-miterlimit="4" r="8.03131" cy="330.89154" cx="204.98969" id="imagebot_35"/>
  <path transform="matrix(0.682741 0 0 0.682741 -40.8987 -10.363)" fill="none" fill-rule="evenodd" stroke="#000000" stroke-width="8" stroke-linecap="round" stroke-linejoin="round" stroke-miterlimit="4" id="imagebot_34" d="M209.67212,312.26063C209.67212,312.26063 218.30264,282.15799 220.84982,264.48495C224.32894,240.34583 229.96782,205.68924 222.11182,182.45501C219.36215,174.32281 211.65526,172.71958 211.65526,172.71958"/>
  <path transform="matrix(0.682741 0 0 0.682741 -40.8987 -10.363)" fill="none" fill-rule="evenodd" stroke="#000000" stroke-width="8" stroke-linecap="round" stroke-linejoin="round" stroke-miterlimit="4" id="imagebot_33" d="M129.77581,198.82105C129.77581,198.82105 124.93427,201.86056 122.89183,205.19511C117.18423,214.51346 112.43837,238.34021 112.43837,238.34021"/>
  <path transform="matrix(0.682741 0 0 0.682741 -40.8987 -10.363)" fill="none" fill-rule="evenodd" stroke="#000000" stroke-width="8" stroke-linecap="round" stroke-linejoin="round" stroke-miterlimit="4" id="imagebot_32" d="M118.55747,278.11433C118.55747,278.11433 125.69512,262.84595 124.67656,254.91276C123.99326,249.59078 121.67282,244.91975 117.31359,241.79126C113.23751,238.86598 106.90176,237.08709 101.98492,238.08525C97.48041,238.9997 93.41546,242.17117 90.51162,245.73411C85.93517,251.34929 82.35282,265.87614 82.35282,265.87614"/>
  <ellipse fill="#090c0e" stroke-width="8" stroke-linecap="round" stroke-linejoin="round" stroke-miterlimit="4" transform="matrix(0.678524 0.075763 -0.075763 0.678524 -40.8987 -10.363)" ry="4.14657" rx="9.73542" cy="304.22223" cx="103.99168" id="imagebot_31"/>
  <ellipse fill="#090c0e" stroke-width="8" stroke-linecap="round" stroke-linejoin="round" stroke-miterlimit="4" id="imagebot_30" cx="188.86551" cy="286.19507" rx="9.73542" ry="4.14657" transform="matrix(0.661584 0.168648 -0.168648 0.661584 -40.8987 -10.363)"/>
  <ellipse fill="url(#imagebot_29)" stroke-width="8" stroke-linecap="round" stroke-linejoin="round" stroke-miterlimit="4" transform="matrix(0.661584 0.168648 -0.168648 0.661584 -40.8987 -10.363)" ry="2.64973" rx="6.22111" cy="285.89706" cx="187.1151" id="imagebot_28"/>
  <ellipse fill="url(#imagebot_27)" stroke-width="8" stroke-linecap="round" stroke-linejoin="round" stroke-miterlimit="4" id="imagebot_26" cx="108.73182" cy="301.75592" rx="6.22111" ry="2.64973" transform="matrix(0.676631 0.0911349 -0.0911349 0.676631 -40.8987 -10.363)"/>
  <path transform="matrix(0.682741 0 0 0.682741 -40.8987 -10.363)" fill="url(#imagebot_25)" fill-rule="evenodd" stroke-width="1px" id="imagebot_24" d="M92.12593,240.68725C97.49869,235.84711 102.74907,235.21216 110.33477,235.99982C110.92101,232.78454 112.87081,223.02626 115.5937,214.91583C118.59797,205.96733 125.28147,197.43964 121.87305,203.72871C119.45104,208.19769 118.45812,209.83894 116.75722,214.79462C114.55133,221.22162 113.42061,231.43181 112.3179,236.72096C114.97723,237.7794 120.93518,243.09089 122.44484,247.25221C125.02845,254.37385 123.61236,266.51936 119.59495,271.41047C115.79234,276.04007 130.69556,256.38583 116.15671,242.4373C109.22645,235.78843 99.03059,237.03469 92.10405,243.28597C90.69575,244.55698 88.76142,246.88103 87.02023,250.23647C83.13721,257.71942 79.70816,267.29265 81.62631,260.21968C84.29719,250.37109 87.47448,244.87758 92.12593,240.68725z"/>
  <path transform="matrix(0.682741 0 0 0.682741 -40.8987 -10.363)" fill="none" fill-rule="evenodd" stroke="#ffffff" stroke-width="1px" stroke-linecap="round" stroke-linejoin="round" stroke-opacity="0.41667" id="imagebot_23" d="M79.54824,313.4266C100.0059,312.59405 109.55625,304.47487 116.51777,282.70365"/>
  <title>imagebot_22</title>
 </g>
 <g display="inline" id="imagebot_13">
  <path fill="#a35206" fill-rule="evenodd" stroke="#cd7c4b" stroke-width="1.5" stroke-linecap="round" stroke-linejoin="round" stroke-miterlimit="4" d="M 26.272827773288483 35.83584910383701 C 19.99574810927153 55.46366248688877 19.381854723987587 84.09949899711668 24.516599479287862 97.18126690458 C 30.306386419119235 111.93188591461121 37.84091794956089 131.16076691193044 48.86104703760087 140.59086051686643 C 56.36936814157664 147.0158423607558 69.86635863470674 140.89155330207348 78.63108701139808 136.32700650893094 C 91.51834201185108 129.61549875530125 96.91320425553977 120.5026748867208 103.93514750825167 110.79291009154737 C 111.75238159891009 99.98343390743494 120.85479366744877 88.41812931438686 122.108067159037 75.13719220638632 C 123.52608605063082 60.110459086656576 118.66531159833193 43.61859111986517 109.45603691061021 31.660218886157274 C 101.92181944102228 21.876922886754272 90.04265881655039 13.204480609187485 77.71094332927822 12.5671555532521 C 60.20548492156564 11.662441817423701 31.25482971512318 20.25763877979517 26.272827773288483 35.83584910383701 z" id="imagebot_20"/>
  <path fill="url(#imagebot_19)" fill-rule="evenodd" stroke-width="1px" d="M 27.744098535465596 73.89521904129802 C 26.042987921292777 56.10492109408139 27.84984828684091 32.75634684809387 39.39142080320359 21.883792224252822 C 81.65292400025844 -17.63038855338037 107.65045134435474 38.36647732477784 76.43725395584643 58.85926891825258 C 65.23222495388387 65.91668056520521 28.67054391688943 83.58407148005962 27.744098535465596 73.89521904129802 z" id="imagebot_18"/>
  <path transform="matrix(0.682741 0 0 0.682741 -40.8987 -10.363)" fill="url(#imagebot_17)" fill-rule="evenodd" stroke-width="1px" d="M140.56544,213.23062C135.34802,208.87517 136.77858,217.41823 144.39863,218.18696C152.72815,219.02727 166.59727,216.34246 179.87611,208.70394C196.02523,199.41433 202.54151,185.49214 217.28081,166.05781C227.20819,152.96817 196.3593,196.86238 175.11118,207.03621C162.73266,212.96318 144.16158,216.23264 140.56544,213.23062z" id="imagebot_16"/>
  <path transform="matrix(0.682741 0 0 0.682741 -40.8987 -10.363)" fill="url(#imagebot_15)" fill-rule="evenodd" stroke-width="1px" d="M215.53268,124.95458C219.65751,121.24439 224.13471,120.78176 225.69879,121.77562C241.42317,131.76738 215.51338,167.80324 222.16632,160.49844C233.22836,148.35254 244.06231,114.88948 222.95545,117.74938C218.39693,118.36704 214.18779,126.16428 215.53268,124.95458z" id="imagebot_14"/>
  <title>imagebot_13</title>
 </g>
 <g display="inline" id="imagebot_6">
  <path fill="#000000" fill-rule="evenodd" stroke="#451900" stroke-width="1.5" stroke-miterlimit="4" d="M 85.3809207857466 38.831186637965835 C 103.61284901440044 49.41440807905709 97.16083701027111 57.10249611448116 98.43430436668932 79.57087246032005 C 98.4837095824105 80.44243330280517 99.13642730099998 81.52531728468362 99.76631597622993 80.64596614002595 C 116.19031011178501 57.71737993193622 127.07755014381607 85.63129262400595 106.83752558950889 103.19849437887322 C 105.6891233010728 104.19524371431673 108.21905371563219 108.33784882419918 109.194599582856 107.16042587974893 C 118.17059358883836 96.32697456025316 124.63966554167543 85.46855333954097 126.27715473222666 71.00832620401661 C 128.12419252798134 54.697588899550645 125.50351481105348 30.826702323500953 114.28222997690645 19.209225527311133 C 103.23764144369171 7.774680120642746 87.11229843631166 6.388454052444489 71.62879039662383 8.569297338221652 C 58.81001048147313 10.374818192317854 47.56253284459832 15.129978983373917 37.85067937652369 21.614100762347665 C 33.29025024625363 24.658874487907287 28.171301026467532 31.240483775677433 25.78110266007681 33.18021145283326 C 22.97450922085988 35.45786427365453 33.70385661416242 40.66223384343366 35.66064324268753 40.83896113352377 C 44.75854879224427 41.66064613336394 55.57143366544585 41.301595071737964 65.51551019755372 39.841546616285534 C 73.14251302924319 38.72170027294965 80.33658642680001 35.90306277367302 85.3809207857466 38.831186637965835 z" id="imagebot_11"/>
  <title>imagebot_6</title>
 </g>
 <g display="inline">
  <title>Layer 6</title>
  <path transform="matrix(1 0 0 1 0 0)" fill="url(#imagebot_5)" fill-rule="evenodd" stroke-width="1px" id="imagebot_4" d="M 65.6876212084961 158.93867601806642 L 70.3454912084961 178.4170760180664 L 72.5685712084961 174.39435601806642 L 65.6876212084961 158.93867601806642 z"/>
 </g>
 <g display="inline">
  <title>Layer 7</title>
  <path transform="matrix(1 0 0 1 0 0)" fill="url(#imagebot_3)" fill-rule="evenodd" stroke-width="1px" d="M 59.41082120849609 159.4428360180664 C 55.07169120849609 163.0824560180664 51.6821212084961 167.0941460180664 48.5491912084961 170.7729960180664 L 48.917741208496096 173.5614060180664 L 59.41082120849609 159.4428360180664 z" id="imagebot_2"/>
 </g>
</svg>